<svg width="941" height="329" viewBox="0 0 941 329" fill="none" xmlns="http://www.w3.org/2000/svg">
<circle cx="164.783" cy="164.94" r="158.737" stroke="#72777C" strokeWidth="10.5047"/>
<path fill-rule="evenodd" clip-rule="evenodd" d="M170.036 283.295C168.295 283.371 166.544 283.409 164.784 283.409C99.3549 283.409 46.3144 230.369 46.3144 164.94C46.3144 99.511 99.3549 46.4705 164.784 46.4705C230.213 46.4705 283.253 99.511 283.253 164.94C283.253 221.344 243.836 268.541 191.045 280.488V291.238C249.682 279.109 293.758 227.171 293.758 164.94C293.758 93.7095 236.014 35.9658 164.784 35.9658C93.5533 35.9658 35.8097 93.7095 35.8097 164.94C35.8097 236.17 93.5533 293.914 164.784 293.914C166.543 293.914 168.294 293.879 170.036 293.809V283.295Z" fill="#7B58E5"/>
<line x1="164.783" y1="293.914" x2="164.783" y2="214.497" stroke="#7B58E5" strokeWidth="10.5047"/>
<path d="M164.492 100.161L164.492 136.364" stroke="#72777C" strokeWidth="7.58671"/>
<circle cx="164.736" cy="91.3605" r="11.0883" transform="rotate(126 164.736 91.3605)" stroke="#72777C" strokeWidth="7.00311"/>
<line x1="189.932" y1="126.392" x2="173.025" y2="143.295" stroke="#72777C" strokeWidth="7.58671"/>
<line x1="164.492" y1="160.854" x2="164.492" y2="197.037" stroke="#72777C" strokeWidth="7.58671"/>
<circle cx="164.784" cy="148.118" r="11.0883" transform="rotate(126 164.784 148.118)" stroke="#72777C" strokeWidth="7.00311"/>
<circle cx="196.157" cy="120.54" r="11.0883" transform="rotate(126 196.157 120.54)" stroke="#7B58E5" strokeWidth="7.00311"/>
<line y1="-3.79335" x2="23.9072" y2="-3.79335" transform="matrix(0.70719 0.707023 0.707023 -0.70719 142.318 123.708)" stroke="#72777C" strokeWidth="7.58671"/>
<circle r="11.0883" transform="matrix(0.587786 0.809017 0.809017 -0.587786 133.41 120.539)" stroke="#72777C" strokeWidth="7.00311"/>
<line x1="189.466" y1="183.491" x2="172.559" y2="200.394" stroke="#787878" strokeWidth="7.58671"/>
<line y1="-3.79335" x2="23.9072" y2="-3.79335" transform="matrix(0.70719 0.707023 0.707023 -0.70719 204.599 180.809)" stroke="#72777C" strokeWidth="7.58671"/>
<circle r="11.0883" transform="matrix(0.587786 0.809017 0.809017 -0.587786 226.6 205.559)" stroke="#7B58E5" strokeWidth="7.00311"/>
<line x1="220.375" y1="155.572" x2="203.468" y2="172.475" stroke="#72777C" strokeWidth="7.58671"/>
<circle cx="195.692" cy="177.64" r="11.0883" transform="rotate(126 195.692 177.64)" stroke="#72777C" strokeWidth="7.00311"/>
<circle cx="226.6" cy="149.721" r="11.0883" transform="rotate(126 226.6 149.721)" stroke="#72777C" strokeWidth="7.00311"/>
<line y1="-3.79335" x2="23.9072" y2="-3.79335" transform="matrix(0.70719 0.707023 0.707023 -0.70719 142.783 180.809)" stroke="#787878" strokeWidth="7.58671"/>
<line x1="127.649" y1="183.491" x2="110.743" y2="200.394" stroke="#787878" strokeWidth="7.58671"/>
<circle cx="102.967" cy="205.559" r="11.0883" transform="rotate(126 102.967 205.559)" stroke="#787878" strokeWidth="7.00311"/>
<line y1="-3.79335" x2="23.9072" y2="-3.79335" transform="matrix(0.70719 0.707023 0.707023 -0.70719 111.874 152.89)" stroke="#787878" strokeWidth="7.58671"/>
<circle r="11.0883" transform="matrix(0.587786 0.809017 0.809017 -0.587786 133.875 177.64)" stroke="#7B58E5" strokeWidth="7.00311"/>
<circle r="11.0883" transform="matrix(0.587786 0.809017 0.809017 -0.587786 102.966 149.721)" stroke="#72777C" strokeWidth="7.00311"/>
<circle cx="164.784" cy="204.876" r="11.0883" transform="rotate(126 164.784 204.876)" stroke="#72777C" strokeWidth="7.00311"/>
<path d="M416.612 147.846C411.927 147.846 407.729 147.085 404.018 145.564C400.306 144.043 397.325 141.792 395.074 138.811C392.884 135.83 391.728 132.24 391.606 128.042H408.216C408.459 130.415 409.281 132.24 410.68 133.517C412.079 134.734 413.905 135.343 416.156 135.343C418.468 135.343 420.293 134.826 421.632 133.791C422.97 132.696 423.64 131.205 423.64 129.319C423.64 127.737 423.092 126.429 421.997 125.395C420.962 124.361 419.654 123.509 418.072 122.84C416.551 122.17 414.361 121.41 411.501 120.558C407.364 119.28 403.987 118.003 401.371 116.725C398.755 115.447 396.504 113.561 394.618 111.067C392.732 108.572 391.789 105.317 391.789 101.301C391.789 95.3389 393.948 90.6845 398.268 87.3381C402.588 83.931 408.216 82.2274 415.152 82.2274C422.21 82.2274 427.899 83.931 432.218 87.3381C436.538 90.6845 438.85 95.3693 439.154 101.393H422.271C422.149 99.3241 421.388 97.7118 419.989 96.5557C418.59 95.3389 416.795 94.7305 414.604 94.7305C412.718 94.7305 411.197 95.2476 410.041 96.282C408.885 97.2554 408.307 98.6852 408.307 100.571C408.307 102.64 409.281 104.252 411.228 105.408C413.175 106.564 416.217 107.812 420.354 109.15C424.491 110.549 427.838 111.888 430.393 113.166C433.009 114.443 435.26 116.299 437.147 118.733C439.033 121.166 439.976 124.3 439.976 128.133C439.976 131.783 439.033 135.099 437.147 138.081C435.321 141.062 432.644 143.435 429.115 145.199C425.586 146.964 421.419 147.846 416.612 147.846ZM480.701 147.207L465.186 125.851V147.207H449.58V79.672H465.186V116.999L480.609 96.282H499.866L478.693 121.836L500.049 147.207H480.701ZM513.844 90.9887C511.106 90.9887 508.855 90.1977 507.091 88.6158C505.387 86.9731 504.535 84.9653 504.535 82.5924C504.535 80.1587 505.387 78.1509 507.091 76.569C508.855 74.9263 511.106 74.1049 513.844 74.1049C516.521 74.1049 518.712 74.9263 520.415 76.569C522.18 78.1509 523.062 80.1587 523.062 82.5924C523.062 84.9653 522.18 86.9731 520.415 88.6158C518.712 90.1977 516.521 90.9887 513.844 90.9887ZM521.602 96.282V147.207H505.996V96.282H521.602ZM548.517 79.672V147.207H532.911V79.672H548.517ZM575.433 79.672V147.207H559.827V79.672H575.433ZM607.459 147.937C603.018 147.937 599.063 147.177 595.595 145.656C592.127 144.134 589.389 142.066 587.381 139.45C585.374 136.773 584.248 133.791 584.005 130.506H599.428C599.611 132.27 600.432 133.7 601.892 134.795C603.352 135.89 605.147 136.438 607.277 136.438C609.224 136.438 610.714 136.073 611.749 135.343C612.844 134.552 613.391 133.548 613.391 132.331C613.391 130.871 612.631 129.806 611.11 129.137C609.589 128.407 607.125 127.616 603.718 126.764C600.067 125.912 597.025 125.03 594.591 124.117C592.157 123.144 590.058 121.653 588.294 119.645C586.53 117.577 585.647 114.808 585.647 111.34C585.647 108.42 586.438 105.773 588.02 103.401C589.663 100.967 592.036 99.0503 595.139 97.6509C598.303 96.2515 602.044 95.5518 606.364 95.5518C612.753 95.5518 617.772 97.1337 621.423 100.298C625.134 103.461 627.264 107.659 627.811 112.892H613.391C613.148 111.127 612.357 109.728 611.019 108.694C609.741 107.659 608.037 107.142 605.908 107.142C604.083 107.142 602.683 107.507 601.71 108.237C600.736 108.907 600.25 109.85 600.25 111.067C600.25 112.527 601.01 113.622 602.531 114.352C604.113 115.082 606.547 115.812 609.832 116.542C613.604 117.516 616.677 118.489 619.05 119.463C621.423 120.376 623.491 121.897 625.256 124.026C627.081 126.095 628.024 128.893 628.085 132.422C628.085 135.404 627.233 138.081 625.53 140.454C623.887 142.766 621.484 144.591 618.32 145.929C615.217 147.268 611.597 147.937 607.459 147.937Z" fill="#6C4DEA"/>
<path d="M446.729 243.633H436.325L405.022 196.267V243.633H394.618V180.113H405.022L436.325 227.388V180.113H446.729V243.633ZM506.48 217.258C506.48 219.144 506.358 220.847 506.115 222.368H467.693C467.997 226.384 469.488 229.609 472.165 232.042C474.842 234.476 478.127 235.693 482.021 235.693C487.619 235.693 491.573 233.35 493.885 228.666H505.111C503.59 233.29 500.821 237.092 496.806 240.074C492.851 242.994 487.923 244.454 482.021 244.454C477.215 244.454 472.895 243.389 469.062 241.26C465.289 239.07 462.308 236.028 460.118 232.134C457.988 228.179 456.924 223.616 456.924 218.444C456.924 213.272 457.958 208.74 460.027 204.846C462.156 200.891 465.107 197.849 468.879 195.719C472.712 193.59 477.093 192.525 482.021 192.525C486.767 192.525 490.995 193.56 494.707 195.628C498.418 197.697 501.308 200.617 503.377 204.389C505.445 208.101 506.48 212.39 506.48 217.258ZM495.619 213.972C495.559 210.139 494.19 207.067 491.513 204.755C488.835 202.443 485.52 201.287 481.565 201.287C477.975 201.287 474.903 202.443 472.347 204.755C469.792 207.006 468.271 210.078 467.784 213.972H495.619ZM528.856 201.834V229.669C528.856 231.556 529.282 232.925 530.134 233.776C531.047 234.567 532.568 234.963 534.697 234.963H541.086V243.633H532.872C528.187 243.633 524.597 242.538 522.103 240.347C519.608 238.157 518.361 234.598 518.361 229.669V201.834H512.429V193.347H518.361V180.843H528.856V193.347H541.086V201.834H528.856ZM618.21 193.347L602.604 243.633H591.652L581.522 206.489L571.392 243.633H560.44L544.743 193.347H555.329L565.825 233.776L576.502 193.347H587.363L597.584 233.594L607.988 193.347H618.21ZM647.797 244.454C643.051 244.454 638.762 243.389 634.929 241.26C631.096 239.07 628.084 236.028 625.894 232.134C623.704 228.179 622.608 223.616 622.608 218.444C622.608 213.333 623.734 208.801 625.985 204.846C628.236 200.891 631.309 197.849 635.203 195.719C639.097 193.59 643.447 192.525 648.253 192.525C653.06 192.525 657.41 193.59 661.304 195.719C665.198 197.849 668.271 200.891 670.522 204.846C672.773 208.801 673.899 213.333 673.899 218.444C673.899 223.555 672.743 228.088 670.43 232.042C668.118 235.997 664.955 239.07 660.939 241.26C656.984 243.389 652.604 244.454 647.797 244.454ZM647.797 235.419C650.474 235.419 652.969 234.78 655.281 233.503C657.654 232.225 659.57 230.308 661.03 227.753C662.491 225.198 663.221 222.095 663.221 218.444C663.221 214.794 662.521 211.721 661.122 209.226C659.722 206.671 657.867 204.755 655.555 203.477C653.243 202.199 650.748 201.56 648.071 201.56C645.394 201.56 642.899 202.199 640.587 203.477C638.336 204.755 636.541 206.671 635.203 209.226C633.864 211.721 633.195 214.794 633.195 218.444C633.195 223.859 634.564 228.057 637.302 231.038C640.101 233.959 643.599 235.419 647.797 235.419ZM694.588 200.648C696.109 198.092 698.116 196.115 700.611 194.716C703.166 193.255 706.178 192.525 709.646 192.525V203.294H706.999C702.923 203.294 699.82 204.329 697.69 206.397C695.622 208.466 694.588 212.056 694.588 217.166V243.633H684.183V193.347H694.588V200.648ZM739.105 218.535L762.286 243.633H748.231L729.614 222.003V243.633H719.209V176.098H729.614V215.341L747.866 193.347H762.286L739.105 218.535Z" fill="#72777C"/>
</svg>
