<svg version="1.1" id="el_27kkyWdav" xmlns="http://www.w3.org/2000/svg" xmlns:xlink="http://www.w3.org/1999/xlink" x="0px" y="0px" viewBox="0 0 257 59" style="enable-background:new 0 0 257 59;" xml:space="preserve"><style>@-webkit-keyframes kf_el_YiSN8ESIvA_an_lOZYTt2Sl{0%{opacity: 0;}26.30%{opacity: 0;}30.74%{opacity: 1;}85.93%{opacity: 1;}95.19%{opacity: 0;}100%{opacity: 0;}}@keyframes kf_el_YiSN8ESIvA_an_lOZYTt2Sl{0%{opacity: 0;}26.30%{opacity: 0;}30.74%{opacity: 1;}85.93%{opacity: 1;}95.19%{opacity: 0;}100%{opacity: 0;}}@-webkit-keyframes kf_el_1247looVi9_an_Yc0NI8E9n{0%{opacity: 0;}26.30%{opacity: 0;}30.74%{opacity: 1;}85.93%{opacity: 1;}95.19%{opacity: 0;}100%{opacity: 0;}}@keyframes kf_el_1247looVi9_an_Yc0NI8E9n{0%{opacity: 0;}26.30%{opacity: 0;}30.74%{opacity: 1;}85.93%{opacity: 1;}95.19%{opacity: 0;}100%{opacity: 0;}}@-webkit-keyframes kf_el_un0d3Qcr6i_an_37q7CfqyO{49.26%{opacity: 1;}51.11%{opacity: 0;}0%{opacity: 1;}100%{opacity: 0;}}@keyframes kf_el_un0d3Qcr6i_an_37q7CfqyO{49.26%{opacity: 1;}51.11%{opacity: 0;}0%{opacity: 1;}100%{opacity: 0;}}@-webkit-keyframes kf_el_un0d3Qcr6i_an_IBhV3vDMw3{0%{stroke-dasharray: 343.7;}16.67%{stroke-dasharray: 343.7;}100%{stroke-dasharray: 343.7;}}@keyframes kf_el_un0d3Qcr6i_an_IBhV3vDMw3{0%{stroke-dasharray: 343.7;}16.67%{stroke-dasharray: 343.7;}100%{stroke-dasharray: 343.7;}}@-webkit-keyframes kf_el_un0d3Qcr6i_an_71Y4rJnoO{0%{stroke-dashoffset: 343.7;}16.67%{stroke-dashoffset: 0;}100%{stroke-dashoffset: 0;}}@keyframes kf_el_un0d3Qcr6i_an_71Y4rJnoO{0%{stroke-dashoffset: 343.7;}16.67%{stroke-dashoffset: 0;}100%{stroke-dashoffset: 0;}}@-webkit-keyframes kf_el_EeKUlii5Yp_an_iOmTIRO4M{49.26%{opacity: 1;}51.11%{opacity: 0;}0%{opacity: 1;}100%{opacity: 0;}}@keyframes kf_el_EeKUlii5Yp_an_iOmTIRO4M{49.26%{opacity: 1;}51.11%{opacity: 0;}0%{opacity: 1;}100%{opacity: 0;}}@-webkit-keyframes kf_el_EeKUlii5Yp_an_XGfHfskaPj{0%{stroke-dasharray: 37.7;}16.67%{stroke-dasharray: 37.7;}100%{stroke-dasharray: 37.7;}}@keyframes kf_el_EeKUlii5Yp_an_XGfHfskaPj{0%{stroke-dasharray: 37.7;}16.67%{stroke-dasharray: 37.7;}100%{stroke-dasharray: 37.7;}}@-webkit-keyframes kf_el_EeKUlii5Yp_an_5lOfGW3zR{0%{stroke-dashoffset: 37.7;}16.67%{stroke-dashoffset: 0;}100%{stroke-dashoffset: 0;}}@keyframes kf_el_EeKUlii5Yp_an_5lOfGW3zR{0%{stroke-dashoffset: 37.7;}16.67%{stroke-dashoffset: 0;}100%{stroke-dashoffset: 0;}}@-webkit-keyframes kf_el_NmXoVHL-pO_an_JiDbmA60J{8.89%{opacity: 0;}19.26%{opacity: 1;}82.59%{opacity: 1;}92.22%{opacity: 0;}0%{opacity: 0;}100%{opacity: 0;}}@keyframes kf_el_NmXoVHL-pO_an_JiDbmA60J{8.89%{opacity: 0;}19.26%{opacity: 1;}82.59%{opacity: 1;}92.22%{opacity: 0;}0%{opacity: 0;}100%{opacity: 0;}}@-webkit-keyframes kf_el_FHT65hNbOK_an_Ydh97YYGk{10.37%{opacity: 0;}21.11%{opacity: 1;}85.19%{opacity: 1;}94.44%{opacity: 0;}0%{opacity: 0;}100%{opacity: 0;}}@keyframes kf_el_FHT65hNbOK_an_Ydh97YYGk{10.37%{opacity: 0;}21.11%{opacity: 1;}85.19%{opacity: 1;}94.44%{opacity: 0;}0%{opacity: 0;}100%{opacity: 0;}}@-webkit-keyframes kf_el_kr-65VJGmk_an_6BCm6Q_HV{12.59%{opacity: 0;}22.96%{opacity: 1;}87.04%{opacity: 1;}95.93%{opacity: 0;}0%{opacity: 0;}100%{opacity: 0;}}@keyframes kf_el_kr-65VJGmk_an_6BCm6Q_HV{12.59%{opacity: 0;}22.96%{opacity: 1;}87.04%{opacity: 1;}95.93%{opacity: 0;}0%{opacity: 0;}100%{opacity: 0;}}@-webkit-keyframes kf_el_m01Txhx7Vv_an_IZv5WIJh7{14.44%{opacity: 0;}24.81%{opacity: 1;}88.89%{opacity: 1;}97.41%{opacity: 0;}0%{opacity: 0;}100%{opacity: 0;}}@keyframes kf_el_m01Txhx7Vv_an_IZv5WIJh7{14.44%{opacity: 0;}24.81%{opacity: 1;}88.89%{opacity: 1;}97.41%{opacity: 0;}0%{opacity: 0;}100%{opacity: 0;}}@-webkit-keyframes kf_el_1nAiIAJJPJ_an_Uav_4wNMv{0%{opacity: 0.15;}2.96%{opacity: 0;}16.30%{opacity: 0;}26.67%{opacity: 1;}91.11%{opacity: 1;}98.89%{opacity: 0.15;}100%{opacity: 0.15;}}@keyframes kf_el_1nAiIAJJPJ_an_Uav_4wNMv{0%{opacity: 0.15;}2.96%{opacity: 0;}16.30%{opacity: 0;}26.67%{opacity: 1;}91.11%{opacity: 1;}98.89%{opacity: 0.15;}100%{opacity: 0.15;}}@-webkit-keyframes kf_el_j1m9JPnXou_an_AG4Y4Ol9Z{0%{opacity: 0.3;}4.81%{opacity: 0;}18.15%{opacity: 0;}28.52%{opacity: 1;}92.96%{opacity: 1;}100%{opacity: 0.3;}}@keyframes kf_el_j1m9JPnXou_an_AG4Y4Ol9Z{0%{opacity: 0.3;}4.81%{opacity: 0;}18.15%{opacity: 0;}28.52%{opacity: 1;}92.96%{opacity: 1;}100%{opacity: 0.3;}}#el_27kkyWdav *{-webkit-animation-duration: 9s;animation-duration: 9s;-webkit-animation-iteration-count: infinite;animation-iteration-count: infinite;-webkit-animation-timing-function: cubic-bezier(0, 0, 1, 1);animation-timing-function: cubic-bezier(0, 0, 1, 1);}#el_j1m9JPnXou{fill: #ffffff;-webkit-animation-fill-mode: forwards;animation-fill-mode: forwards;-webkit-animation-name: kf_el_j1m9JPnXou_an_AG4Y4Ol9Z;animation-name: kf_el_j1m9JPnXou_an_AG4Y4Ol9Z;-webkit-animation-timing-function: cubic-bezier(0, 0, 1, 1);animation-timing-function: cubic-bezier(0, 0, 1, 1);}#el_1nAiIAJJPJ{fill: #ffffff;-webkit-animation-fill-mode: forwards;animation-fill-mode: forwards;-webkit-animation-name: kf_el_1nAiIAJJPJ_an_Uav_4wNMv;animation-name: kf_el_1nAiIAJJPJ_an_Uav_4wNMv;-webkit-animation-timing-function: cubic-bezier(0, 0, 1, 1);animation-timing-function: cubic-bezier(0, 0, 1, 1);}#el_m01Txhx7Vv{fill: #ffffff;-webkit-animation-fill-mode: forwards;animation-fill-mode: forwards;-webkit-animation-name: kf_el_m01Txhx7Vv_an_IZv5WIJh7;animation-name: kf_el_m01Txhx7Vv_an_IZv5WIJh7;-webkit-animation-timing-function: cubic-bezier(0, 0, 1, 1);animation-timing-function: cubic-bezier(0, 0, 1, 1);}#el_kr-65VJGmk{fill: #ffffff;-webkit-animation-fill-mode: forwards;animation-fill-mode: forwards;-webkit-animation-name: kf_el_kr-65VJGmk_an_6BCm6Q_HV;animation-name: kf_el_kr-65VJGmk_an_6BCm6Q_HV;-webkit-animation-timing-function: cubic-bezier(0, 0, 1, 1);animation-timing-function: cubic-bezier(0, 0, 1, 1);}#el_FHT65hNbOK{fill: #ffffff;-webkit-animation-fill-mode: forwards;animation-fill-mode: forwards;-webkit-animation-name: kf_el_FHT65hNbOK_an_Ydh97YYGk;animation-name: kf_el_FHT65hNbOK_an_Ydh97YYGk;-webkit-animation-timing-function: cubic-bezier(0, 0, 1, 1);animation-timing-function: cubic-bezier(0, 0, 1, 1);}#el_NmXoVHL-pO{fill: #ffffff;stroke-width: 2;stroke-miterlimit: 10;-webkit-animation-fill-mode: forwards;animation-fill-mode: forwards;-webkit-animation-name: kf_el_NmXoVHL-pO_an_JiDbmA60J;animation-name: kf_el_NmXoVHL-pO_an_JiDbmA60J;-webkit-animation-timing-function: cubic-bezier(0, 0, 1, 1);animation-timing-function: cubic-bezier(0, 0, 1, 1);}#el_EeKUlii5Yp{fill: none;stroke: #EC008C;stroke-width: 2;stroke-miterlimit: 10;-webkit-animation-fill-mode: forwards, forwards, forwards;animation-fill-mode: forwards, forwards, forwards;-webkit-animation-name: kf_el_EeKUlii5Yp_an_5lOfGW3zR, kf_el_EeKUlii5Yp_an_XGfHfskaPj, kf_el_EeKUlii5Yp_an_iOmTIRO4M;animation-name: kf_el_EeKUlii5Yp_an_5lOfGW3zR, kf_el_EeKUlii5Yp_an_XGfHfskaPj, kf_el_EeKUlii5Yp_an_iOmTIRO4M;-webkit-animation-timing-function: cubic-bezier(0, 0, 1, 1), cubic-bezier(0, 0, 1, 1), cubic-bezier(0, 0, 1, 1);animation-timing-function: cubic-bezier(0, 0, 1, 1), cubic-bezier(0, 0, 1, 1), cubic-bezier(0, 0, 1, 1);}#el_un0d3Qcr6i{fill: none;stroke: url(#a_keyline_1_);stroke-width: 2;stroke-miterlimit: 10;-webkit-animation-fill-mode: forwards, forwards, forwards;animation-fill-mode: forwards, forwards, forwards;-webkit-animation-name: kf_el_un0d3Qcr6i_an_71Y4rJnoO, kf_el_un0d3Qcr6i_an_IBhV3vDMw3, kf_el_un0d3Qcr6i_an_37q7CfqyO;animation-name: kf_el_un0d3Qcr6i_an_71Y4rJnoO, kf_el_un0d3Qcr6i_an_IBhV3vDMw3, kf_el_un0d3Qcr6i_an_37q7CfqyO;-webkit-animation-timing-function: cubic-bezier(0, 0, 1, 1), cubic-bezier(0, 0, 1, 1), cubic-bezier(0, 0, 1, 1);animation-timing-function: cubic-bezier(0, 0, 1, 1), cubic-bezier(0, 0, 1, 1), cubic-bezier(0, 0, 1, 1);}#el_1247looVi9{fill: #EC008C;-webkit-animation-fill-mode: forwards;animation-fill-mode: forwards;-webkit-animation-name: kf_el_1247looVi9_an_Yc0NI8E9n;animation-name: kf_el_1247looVi9_an_Yc0NI8E9n;-webkit-animation-timing-function: cubic-bezier(0, 0, 1, 1);animation-timing-function: cubic-bezier(0, 0, 1, 1);}#el_YiSN8ESIvA{fill: url(#a_solid_1_);-webkit-animation-fill-mode: forwards;animation-fill-mode: forwards;-webkit-animation-name: kf_el_YiSN8ESIvA_an_lOZYTt2Sl;animation-name: kf_el_YiSN8ESIvA_an_lOZYTt2Sl;-webkit-animation-timing-function: cubic-bezier(0, 0, 1, 1);animation-timing-function: cubic-bezier(0, 0, 1, 1);}</style>

<g id="el_2FbqLf-6PS">
	<path id="el_j1m9JPnXou" d="M252.3,24.1c-1.3-0.8-4.1-1.9-6.8-1.9c-2.6,0-4.2,1.1-4.2,2.6c0,1.5,1.6,2,3.6,2.3l2.3,0.3&#10;&#9;&#9;c4.8,0.7,7.7,2.7,7.7,6.5c0,4.2-3.7,7.2-10,7.2c-2.3,0-6.2-0.4-9.5-2.8l2.2-3.6c1.6,1.2,3.7,2.3,7.3,2.3c3.3,0,5-1,5-2.7&#10;&#9;&#9;c0-1.2-1.2-2.1-3.8-2.4l-2.3-0.3c-4.9-0.7-7.5-2.9-7.5-6.5c0-4.4,3.5-7.1,9.1-7.1c3.5,0,6.6,0.9,8.9,2.3L252.3,24.1z"/>
	<path id="el_1nAiIAJJPJ" d="M232.5,21.5l-3.1,3.3c-1.5-1.4-3.2-2.3-5.3-2.3c-3.7,0-6.5,2.9-6.5,7.1c0,4.2,2.8,7.1,6.5,7.1&#10;&#9;&#9;c2.1,0,4-1,5.4-2.3l3,3.3c-2,2.3-4.9,3.5-8.2,3.5c-7,0-11.6-5-11.6-11.6c0-6.6,4.6-11.6,11.6-11.6C227.6,18,230.5,19.2,232.5,21.5z&#10;&#9;&#9;"/>
	<path id="el_m01Txhx7Vv" d="M209.3,29.6c0,6.6-5.1,11.6-11.9,11.6c-6.8,0-11.8-5-11.8-11.6c0-6.6,5-11.6,11.8-11.6&#10;&#9;&#9;C204.2,18,209.3,23,209.3,29.6z M190.5,29.6c0,4.2,3,7.1,6.9,7.1c3.9,0,6.9-2.9,6.9-7.1c0-4.2-3-7.1-6.9-7.1&#10;&#9;&#9;C193.5,22.5,190.5,25.4,190.5,29.6z"/>
	<path id="el_kr-65VJGmk" d="M176.4,21.2v-8.1l4.8-1.7v29.2h-4.8v-2.6c-1.5,2-3.8,3.2-6.9,3.2c-6.2,0-11-4.9-11-11.6&#10;&#9;&#9;c0-6.7,4.9-11.6,11-11.6C172.6,18,174.9,19.3,176.4,21.2z M163.4,29.6c0,3.9,2.5,7.1,6.6,7.1c4,0,6.6-3,6.6-7.1&#10;&#9;&#9;c0-4-2.7-7.1-6.6-7.1C165.9,22.5,163.4,25.7,163.4,29.6z"/>
	<path id="el_FHT65hNbOK" d="M154.3,26.7v13.8h-4.8V28.3c0-3.7-1.9-5.8-5.1-5.8c-3.1,0-5.7,2-5.7,5.8v12.2h-4.8V28.3&#10;&#9;&#9;c0-3.7-1.9-5.8-5.1-5.8c-3.1,0-5.7,2-5.7,5.8v12.2h-4.8v-22h4.8v2.7c1.8-2.6,4.5-3.3,6.8-3.3c3.4,0,6.1,1.5,7.6,3.9&#10;&#9;&#9;c1.9-3.2,5.3-3.9,8-3.9C150.6,18,154.3,21.6,154.3,26.7z"/>
	<path id="el_NmXoVHL-pO" d="M112.9,40.6h-4.8v-2.6c-1.5,2-3.8,3.2-6.9,3.2c-6.2,0-11-4.9-11-11.6c0-6.7,4.9-11.6,11-11.6&#10;&#9;&#9;c3.1,0,5.4,1.3,6.9,3.2v-2.7h4.8V40.6z M95.1,29.6c0,3.9,2.5,7.1,6.6,7.1c4,0,6.6-3,6.6-7.1c0-4-2.7-7.1-6.6-7.1&#10;&#9;&#9;C97.6,22.5,95.1,25.7,95.1,29.6z"/>
</g>
<path id="el_EeKUlii5Yp" d="M63.8,34h10.9L72,25h-8.3V34z"/>
<linearGradient id="a_keyline_1_" gradientUnits="userSpaceOnUse" x1="2.0525" y1="29.5" x2="57.0525" y2="29.5">
	<stop offset="1.734970e-02" style="stop-color:#FDB515"/>
	<stop offset="0.131" style="stop-color:#FCA91D"/>
	<stop offset="0.3371" style="stop-color:#F98932"/>
	<stop offset="0.6124" style="stop-color:#F45454"/>
	<stop offset="0.9431" style="stop-color:#ED0D83"/>
	<stop offset="1" style="stop-color:#EC008C"/>
</linearGradient>
<path id="el_un0d3Qcr6i" d="M18.6,25C10,25,3.1,32,3.1,40.5c0,8.5,7,15.5,15.5,15.5h22c8.5,0,15.5-7,15.5-15.5v-22&#10;&#9;C56.1,10,49.1,3,40.5,3h-31l2.6,9h28.4c3.6,0,6.5,2.9,6.5,6.5V25H18.6z M40.5,47h-22c-3.6,0-6.5-2.9-6.5-6.5S15,34,18.6,34h28.5v6.5&#10;&#9;C47.1,44.1,44.1,47,40.5,47z"/>
<polygon id="el_1247looVi9" points="72.8,24 62.8,24 62.8,35 76,35 "/>
<linearGradient id="a_solid_1_" gradientUnits="userSpaceOnUse" x1="1.189" y1="29.5" x2="74.1326" y2="29.5">
	<stop offset="1.734970e-02" style="stop-color:#FDB515"/>
	<stop offset="0.1046" style="stop-color:#FCA91D"/>
	<stop offset="0.2628" style="stop-color:#F98932"/>
	<stop offset="0.4741" style="stop-color:#F45454"/>
	<stop offset="0.7279" style="stop-color:#ED0D83"/>
	<stop offset="0.7715" style="stop-color:#EC008C"/>
</linearGradient>
<path id="el_YiSN8ESIvA" d="M40.5,2H8.3l3.2,11h29.1c3,0,5.5,2.5,5.5,5.5V24H18.6C9.5,24,2.1,31.4,2.1,40.5S9.5,57,18.6,57h22&#10;&#9;c9.1,0,16.5-7.4,16.5-16.5v-11V24v-5.5C57.1,9.4,49.6,2,40.5,2z M46.1,40.5c0,3-2.5,5.5-5.5,5.5h-22c-3,0-5.5-2.5-5.5-5.5&#10;&#9;c0-3,2.5-5.5,5.5-5.5h27.5V40.5z"/>
</svg>