<svg width="198" height="49" viewBox="0 0 198 49" fill="none" xmlns="http://www.w3.org/2000/svg">
<path d="M7.67083 33.4946C5.97192 32.362 4.53042 30.9205 3.39782 29.2731C2.26521 27.5742 1.39002 25.7723 0.823713 23.8675C0.308892 21.9626 0 20.2123 0 18.6678V17.0204C0 15.4759 0.308892 13.7255 0.875195 11.8207C1.4415 9.91585 2.31669 8.11397 3.4493 6.41507C4.5819 4.71616 5.97192 3.32614 7.72231 2.19354C9.4727 1.06093 11.3775 0.494629 13.6427 0.494629H40.0016C42.2668 0.494629 44.2231 1.06093 45.9735 2.19354C47.6724 3.32614 49.1139 4.76764 50.2465 6.41507C51.3791 8.11397 52.2543 9.91585 52.8206 11.8207C53.3869 13.7255 53.6443 15.4759 53.6443 17.0204V18.6678C53.6443 20.2123 53.3869 21.9626 52.8206 23.8675C52.2543 25.7723 51.4306 27.5742 50.2465 29.2731C49.1139 30.972 47.6724 32.362 45.9735 33.4946C44.2746 34.6272 42.2668 35.1935 40.0016 35.1935H13.6427C11.3775 35.245 9.36973 34.6272 7.67083 33.4946ZM8.18565 21.7567C8.54602 22.9923 9.06084 24.1249 9.73011 25.1031C10.3994 26.0812 11.2231 26.9049 12.1498 27.5227C13.0764 28.1405 14.1576 28.4494 15.3417 28.4494H38.2512C39.4353 28.4494 40.5164 28.1405 41.4945 27.5227C42.4727 26.9049 43.2964 26.0812 43.9657 25.1031C44.6349 24.1249 45.1498 22.9923 45.5101 21.7567C45.8705 20.5211 46.025 19.2856 46.025 18.05V17.6896C46.025 16.4541 45.8705 15.2185 45.5101 13.9829C45.1498 12.7474 44.6349 11.6148 43.9657 10.5851C43.2964 9.60695 42.4727 8.78324 41.4945 8.16546C40.5164 7.54767 39.4353 7.23878 38.2512 7.23878H15.3417C14.1576 7.23878 13.0764 7.54767 12.1498 8.16546C11.2231 8.78324 10.3994 9.60695 9.73011 10.5851C9.06084 11.5633 8.54602 12.6959 8.18565 13.9829C7.82527 15.2185 7.61934 16.4541 7.61934 17.6896V18.05C7.61934 19.2856 7.77379 20.5211 8.18565 21.7567Z" fill="#1C4890"/>
<path d="M61.4181 0.494629H89.0125C90.1451 0.494629 91.4321 0.649075 92.7706 1.00945C94.1092 1.36982 95.3962 1.93613 96.5803 2.70836C97.7644 3.48059 98.7426 4.56171 99.5148 5.90024C100.287 7.23878 100.699 8.93769 100.699 10.9455C100.699 12.6959 100.287 14.1889 99.4633 15.5274C98.6396 16.8659 97.6614 17.947 96.4774 18.8222C95.2933 19.6974 94.0062 20.3667 92.6677 20.83C91.3292 21.2934 90.0936 21.4993 89.0125 21.4993H69.6552C69.4493 21.4993 69.2434 21.3963 69.0374 21.1389L68.2652 20.1093V34.3183C68.2652 34.8846 68.0078 35.1421 67.4415 35.1421H61.4181C60.8518 35.1421 60.5944 34.8846 60.5944 34.3183V1.31834C60.5944 0.752039 60.8518 0.494629 61.4181 0.494629ZM89.0125 14.8066C90.0936 14.8066 91.0717 14.4463 91.8955 13.7255C92.7192 13.0048 93.131 12.1296 93.131 11.0999C93.131 10.0188 92.6677 9.09213 91.7925 8.37138C90.9173 7.65064 89.8362 7.29026 88.6006 7.29026H68.2652V14.8066H89.0125Z" fill="#1C4890"/>
<path d="M148.989 35.245H121.034C118.718 35.245 116.71 34.6787 115.062 33.5461C113.364 32.4135 111.973 30.972 110.789 29.3246C109.657 27.6257 108.782 25.8238 108.215 23.919C107.649 22.0141 107.392 20.2637 107.392 18.7193V1.31834C107.392 0.752039 107.649 0.494629 108.164 0.494629H114.187C114.754 0.494629 115.011 0.752039 115.011 1.31834V18.05C115.011 19.2856 115.165 20.5211 115.526 21.7567C115.886 22.9923 116.401 24.1249 117.07 25.1031C117.739 26.0812 118.563 26.9049 119.541 27.5227C120.52 28.1405 121.601 28.4494 122.785 28.4494H142.142V1.31834C142.142 0.752039 142.399 0.494629 142.966 0.494629H148.989C149.555 0.494629 149.813 0.752039 149.813 1.31834V34.4213C149.813 34.9361 149.555 35.245 148.989 35.245Z" fill="#1C4890"/>
<path d="M165.463 8.31993C164.588 9.04068 164.125 9.91588 164.125 10.997C164.125 12.0266 164.537 12.9018 165.36 13.5196C166.184 14.1374 167.111 14.4978 168.243 14.4978H186.314C187.395 14.4978 188.63 14.7037 189.969 15.167C191.307 15.5789 192.594 16.2482 193.778 17.1234C194.963 17.9986 195.992 19.0797 196.764 20.3667C197.588 21.6538 198 23.1468 198 24.8457C198 26.8535 197.588 28.5009 196.816 29.8394C196.044 31.178 195.066 32.2076 193.881 33.0313C192.697 33.8036 191.41 34.4213 190.072 34.7302C188.733 35.0906 187.446 35.2451 186.314 35.2451H157.329C156.814 35.2451 156.557 34.9876 156.557 34.4213C156.557 34.061 156.711 33.5461 157.02 32.8769C157.329 32.2076 157.69 31.5383 158.101 30.9206C158.513 30.2513 159.028 29.685 159.543 29.2217C160.058 28.7583 160.573 28.5009 160.984 28.5009H185.85C187.086 28.5009 188.167 28.1405 189.042 27.4713C189.917 26.802 190.381 25.8753 190.381 24.7942C190.381 23.9705 190.072 23.2497 189.403 22.5805C188.733 21.9627 188.013 21.4993 187.189 21.2934H168.243C167.162 21.2934 165.927 21.0875 164.537 20.6241C163.198 20.2123 161.911 19.543 160.727 18.6678C159.543 17.7926 158.565 16.7115 157.741 15.4245C156.917 14.1374 156.505 12.5929 156.505 10.894C156.505 8.93772 156.917 7.29029 157.69 5.95176C158.462 4.61323 159.44 3.5321 160.624 2.75987C161.808 1.98764 163.044 1.36986 164.434 1.06096C165.772 0.700589 167.059 0.546143 168.192 0.546143H197.125C197.691 0.546143 197.949 0.803553 197.949 1.36986C197.949 1.73023 197.794 2.24505 197.485 2.91432C197.176 3.58358 196.816 4.25285 196.353 4.87064C195.889 5.5399 195.374 6.10621 194.86 6.56954C194.345 7.03288 193.881 7.29029 193.418 7.29029H168.604C167.368 7.23881 166.339 7.59918 165.463 8.31993Z" fill="#1C4890"/>
<path d="M42.0608 41.9893H11.5834V48.7334H42.0608V41.9893Z" fill="#F5A81C"/>
</svg>
